<svg xmlns="http://www.w3.org/2000/svg" xmlns:xlink="http://www.w3.org/1999/xlink" width="500" zoomAndPan="magnify" viewBox="0 0 375 374.999991" height="500" preserveAspectRatio="xMidYMid meet" version="1.0"><defs><g/><clipPath id="dd5d8a388b"><path d="M 72 173 L 108.722656 173 L 108.722656 221.351562 L 72 221.351562 Z M 72 173 " clip-rule="nonzero"/></clipPath><clipPath id="8e80f35eb9"><path d="M 0 0.0390625 L 36.722656 0.0390625 L 36.722656 46 L 0 46 Z M 0 0.0390625 " clip-rule="nonzero"/></clipPath><clipPath id="e4837ddc9a"><rect x="0" width="37" y="0" height="49"/></clipPath><clipPath id="1de8963bdb"><rect x="0" width="210" y="0" height="25"/></clipPath></defs><g fill="#ffffff" fill-opacity="1"><g transform="translate(28.850789, 204.77798)"><g><path d="M 26.265625 -8.953125 C 27.765625 -8.953125 29.222656 -9.175781 30.640625 -9.625 C 32.066406 -10.082031 33.113281 -10.523438 33.78125 -10.953125 L 34.78125 -11.625 L 39 -3.203125 C 38.851562 -3.097656 38.65625 -2.957031 38.40625 -2.78125 C 38.164062 -2.613281 37.597656 -2.289062 36.703125 -1.8125 C 35.804688 -1.34375 34.847656 -0.929688 33.828125 -0.578125 C 32.816406 -0.222656 31.484375 0.09375 29.828125 0.375 C 28.179688 0.65625 26.484375 0.796875 24.734375 0.796875 C 20.703125 0.796875 16.878906 -0.191406 13.265625 -2.171875 C 9.648438 -4.160156 6.734375 -6.890625 4.515625 -10.359375 C 2.304688 -13.835938 1.203125 -17.59375 1.203125 -21.625 C 1.203125 -24.675781 1.851562 -27.601562 3.15625 -30.40625 C 4.457031 -33.21875 6.1875 -35.625 8.34375 -37.625 C 10.5 -39.625 13.015625 -41.21875 15.890625 -42.40625 C 18.765625 -43.601562 21.710938 -44.203125 24.734375 -44.203125 C 27.535156 -44.203125 30.117188 -43.867188 32.484375 -43.203125 C 34.859375 -42.535156 36.535156 -41.867188 37.515625 -41.203125 L 39 -40.203125 L 34.78125 -31.78125 C 34.539062 -31.988281 34.171875 -32.242188 33.671875 -32.546875 C 33.179688 -32.847656 32.195312 -33.242188 30.71875 -33.734375 C 29.25 -34.222656 27.765625 -34.46875 26.265625 -34.46875 C 23.878906 -34.46875 21.738281 -34.082031 19.84375 -33.3125 C 17.945312 -32.539062 16.445312 -31.519531 15.34375 -30.25 C 14.238281 -28.988281 13.394531 -27.628906 12.8125 -26.171875 C 12.238281 -24.722656 11.953125 -23.242188 11.953125 -21.734375 C 11.953125 -18.429688 13.1875 -15.472656 15.65625 -12.859375 C 18.125 -10.253906 21.660156 -8.953125 26.265625 -8.953125 Z M 26.265625 -8.953125 "/></g></g></g><g fill="#ffffff" fill-opacity="1"><g transform="translate(66.842974, 204.77798)"><g/></g></g><g fill="#ffffff" fill-opacity="1"><g transform="translate(79.575898, 204.77798)"><g/></g></g><g fill="#ffffff" fill-opacity="1"><g transform="translate(92.308823, 204.77798)"><g/></g></g><g fill="#ffffff" fill-opacity="1"><g transform="translate(105.046096, 204.77798)"><g><path d="M 3.15625 0 L 3.15625 -27 L 12.46875 -27 L 12.46875 -23.109375 L 12.578125 -23.109375 C 12.648438 -23.242188 12.765625 -23.414062 12.921875 -23.625 C 13.078125 -23.832031 13.414062 -24.195312 13.9375 -24.71875 C 14.46875 -25.25 15.03125 -25.722656 15.625 -26.140625 C 16.226562 -26.566406 17 -26.945312 17.9375 -27.28125 C 18.882812 -27.613281 19.851562 -27.78125 20.84375 -27.78125 C 21.851562 -27.78125 22.847656 -27.640625 23.828125 -27.359375 C 24.816406 -27.078125 25.539062 -26.796875 26 -26.515625 L 26.734375 -26.109375 L 22.84375 -18.203125 C 21.6875 -19.191406 20.070312 -19.6875 18 -19.6875 C 16.875 -19.6875 15.90625 -19.4375 15.09375 -18.9375 C 14.289062 -18.445312 13.722656 -17.851562 13.390625 -17.15625 C 13.054688 -16.457031 12.816406 -15.859375 12.671875 -15.359375 C 12.535156 -14.867188 12.46875 -14.484375 12.46875 -14.203125 L 12.46875 0 Z M 3.15625 0 "/></g></g></g><g fill="#ffffff" fill-opacity="1"><g transform="translate(129.617898, 204.77798)"><g><path d="M 4.046875 -42.046875 C 5.140625 -43.128906 6.4375 -43.671875 7.9375 -43.671875 C 9.445312 -43.671875 10.742188 -43.128906 11.828125 -42.046875 C 12.921875 -40.960938 13.46875 -39.664062 13.46875 -38.15625 C 13.46875 -36.644531 12.921875 -35.34375 11.828125 -34.25 C 10.742188 -33.164062 9.445312 -32.625 7.9375 -32.625 C 6.4375 -32.625 5.140625 -33.164062 4.046875 -34.25 C 2.960938 -35.34375 2.421875 -36.644531 2.421875 -38.15625 C 2.421875 -39.664062 2.960938 -40.960938 4.046875 -42.046875 Z M 3.15625 -27 L 3.15625 0 L 12.46875 0 L 12.46875 -27 Z M 3.15625 -27 "/></g></g></g><g fill="#ffffff" fill-opacity="1"><g transform="translate(143.876721, 204.77798)"><g><path d="M 34 -27 L 21.15625 -14.109375 L 35.265625 0 L 23.265625 0 L 12.46875 -10.78125 L 12.46875 0 L 3.15625 0 L 3.15625 -45.25 L 12.46875 -45.25 L 12.46875 -17.578125 L 21.890625 -27 Z M 34 -27 "/></g></g></g><g fill="#ffffff" fill-opacity="1"><g transform="translate(176.235884, 204.77798)"><g><path d="M 30.46875 -12.203125 L 10.890625 -12.203125 C 10.890625 -10.316406 11.503906 -8.914062 12.734375 -8 C 13.960938 -7.082031 15.296875 -6.625 16.734375 -6.625 C 18.242188 -6.625 19.4375 -6.828125 20.3125 -7.234375 C 21.1875 -7.640625 22.1875 -8.4375 23.3125 -9.625 L 30.046875 -6.265625 C 27.242188 -1.554688 22.578125 0.796875 16.046875 0.796875 C 11.984375 0.796875 8.492188 -0.597656 5.578125 -3.390625 C 2.660156 -6.179688 1.203125 -9.539062 1.203125 -13.46875 C 1.203125 -17.394531 2.660156 -20.757812 5.578125 -23.5625 C 8.492188 -26.375 11.984375 -27.78125 16.046875 -27.78125 C 20.328125 -27.78125 23.804688 -26.539062 26.484375 -24.0625 C 29.171875 -21.59375 30.515625 -18.0625 30.515625 -13.46875 C 30.515625 -12.84375 30.5 -12.421875 30.46875 -12.203125 Z M 11.15625 -17.359375 L 21.421875 -17.359375 C 21.210938 -18.765625 20.660156 -19.84375 19.765625 -20.59375 C 18.867188 -21.351562 17.71875 -21.734375 16.3125 -21.734375 C 14.769531 -21.734375 13.539062 -21.328125 12.625 -20.515625 C 11.71875 -19.710938 11.226562 -18.660156 11.15625 -17.359375 Z M 11.15625 -17.359375 "/></g></g></g><g fill="#ffffff" fill-opacity="1"><g transform="translate(206.332505, 204.77798)"><g><path d="M 3.15625 0 L 3.15625 -27 L 12.46875 -27 L 12.46875 -23.109375 L 12.578125 -23.109375 C 12.648438 -23.242188 12.765625 -23.414062 12.921875 -23.625 C 13.078125 -23.832031 13.414062 -24.195312 13.9375 -24.71875 C 14.46875 -25.25 15.03125 -25.722656 15.625 -26.140625 C 16.226562 -26.566406 17 -26.945312 17.9375 -27.28125 C 18.882812 -27.613281 19.851562 -27.78125 20.84375 -27.78125 C 21.851562 -27.78125 22.847656 -27.640625 23.828125 -27.359375 C 24.816406 -27.078125 25.539062 -26.796875 26 -26.515625 L 26.734375 -26.109375 L 22.84375 -18.203125 C 21.6875 -19.191406 20.070312 -19.6875 18 -19.6875 C 16.875 -19.6875 15.90625 -19.4375 15.09375 -18.9375 C 14.289062 -18.445312 13.722656 -17.851562 13.390625 -17.15625 C 13.054688 -16.457031 12.816406 -15.859375 12.671875 -15.359375 C 12.535156 -14.867188 12.46875 -14.484375 12.46875 -14.203125 L 12.46875 0 Z M 3.15625 0 "/></g></g></g><g fill="#ffffff" fill-opacity="1"><g transform="translate(230.904307, 204.77798)"><g><path d="M 4.046875 -42.046875 C 5.140625 -43.128906 6.4375 -43.671875 7.9375 -43.671875 C 9.445312 -43.671875 10.742188 -43.128906 11.828125 -42.046875 C 12.921875 -40.960938 13.46875 -39.664062 13.46875 -38.15625 C 13.46875 -36.644531 12.921875 -35.34375 11.828125 -34.25 C 10.742188 -33.164062 9.445312 -32.625 7.9375 -32.625 C 6.4375 -32.625 5.140625 -33.164062 4.046875 -34.25 C 2.960938 -35.34375 2.421875 -36.644531 2.421875 -38.15625 C 2.421875 -39.664062 2.960938 -40.960938 4.046875 -42.046875 Z M 3.15625 -27 L 3.15625 2.375 C 3.15625 4.820312 2.296875 6.046875 0.578125 6.046875 C 0.222656 6.046875 -0.144531 5.984375 -0.53125 5.859375 C -0.914062 5.742188 -1.226562 5.613281 -1.46875 5.46875 L -1.796875 5.265625 L -4.6875 12.78125 C -4.613281 12.820312 -4.382812 12.925781 -4 13.09375 C -3.613281 13.269531 -3.320312 13.398438 -3.125 13.484375 C -2.9375 13.578125 -2.613281 13.691406 -2.15625 13.828125 C -1.695312 13.972656 -1.253906 14.082031 -0.828125 14.15625 C -0.410156 14.226562 0.109375 14.296875 0.734375 14.359375 C 1.367188 14.429688 2.035156 14.46875 2.734375 14.46875 C 4.492188 14.46875 6.039062 14.160156 7.375 13.546875 C 8.707031 12.929688 9.722656 12.109375 10.421875 11.078125 C 11.117188 10.046875 11.632812 8.957031 11.96875 7.8125 C 12.300781 6.675781 12.46875 5.457031 12.46875 4.15625 L 12.46875 -27 Z M 3.15625 -27 "/></g></g></g><g fill="#ffffff" fill-opacity="1"><g transform="translate(244.900041, 204.77798)"><g><path d="M 4.984375 -3.328125 C 2.460938 -6.085938 1.203125 -9.46875 1.203125 -13.46875 C 1.203125 -17.46875 2.460938 -20.851562 4.984375 -23.625 C 7.515625 -26.394531 10.726562 -27.78125 14.625 -27.78125 C 18.207031 -27.78125 21.15625 -26.660156 23.46875 -24.421875 L 23.46875 -27 L 32.78125 -27 L 32.78125 0 L 23.578125 0 L 23.578125 -3.046875 L 23.46875 -3.046875 C 21.15625 -0.484375 18.207031 0.796875 14.625 0.796875 C 10.726562 0.796875 7.515625 -0.578125 4.984375 -3.328125 Z M 12.921875 -18.046875 C 11.710938 -16.859375 11.109375 -15.332031 11.109375 -13.46875 C 11.109375 -11.613281 11.6875 -10.097656 12.84375 -8.921875 C 14 -7.742188 15.523438 -7.15625 17.421875 -7.15625 C 19.242188 -7.15625 20.742188 -7.75 21.921875 -8.9375 C 23.097656 -10.132812 23.6875 -11.644531 23.6875 -13.46875 C 23.6875 -15.332031 23.078125 -16.859375 21.859375 -18.046875 C 20.648438 -19.242188 19.171875 -19.84375 17.421875 -19.84375 C 15.628906 -19.84375 14.128906 -19.242188 12.921875 -18.046875 Z M 12.921875 -18.046875 "/></g></g></g><g fill="#ffffff" fill-opacity="1"><g transform="translate(279.206039, 204.77798)"><g><path d="M 9.15625 -11.265625 C 10.84375 -11.265625 12.269531 -10.675781 13.4375 -9.5 C 14.613281 -8.320312 15.203125 -6.890625 15.203125 -5.203125 C 15.203125 -3.554688 14.613281 -2.144531 13.4375 -0.96875 C 12.269531 0.207031 10.84375 0.796875 9.15625 0.796875 C 7.507812 0.796875 6.097656 0.207031 4.921875 -0.96875 C 3.742188 -2.144531 3.15625 -3.554688 3.15625 -5.203125 C 3.15625 -6.890625 3.742188 -8.320312 4.921875 -9.5 C 6.097656 -10.675781 7.507812 -11.265625 9.15625 -11.265625 Z M 9.15625 -11.265625 "/></g></g></g><g fill="#ffffff" fill-opacity="1"><g transform="translate(295.937872, 204.77798)"><g><path d="M 4.046875 -42.046875 C 5.140625 -43.128906 6.4375 -43.671875 7.9375 -43.671875 C 9.445312 -43.671875 10.742188 -43.128906 11.828125 -42.046875 C 12.921875 -40.960938 13.46875 -39.664062 13.46875 -38.15625 C 13.46875 -36.644531 12.921875 -35.34375 11.828125 -34.25 C 10.742188 -33.164062 9.445312 -32.625 7.9375 -32.625 C 6.4375 -32.625 5.140625 -33.164062 4.046875 -34.25 C 2.960938 -35.34375 2.421875 -36.644531 2.421875 -38.15625 C 2.421875 -39.664062 2.960938 -40.960938 4.046875 -42.046875 Z M 3.15625 -27 L 3.15625 0 L 12.46875 0 L 12.46875 -27 Z M 3.15625 -27 "/></g></g></g><g fill="#ffffff" fill-opacity="1"><g transform="translate(310.196695, 204.77798)"><g><path d="M 4.984375 -3.328125 C 2.460938 -6.085938 1.203125 -9.46875 1.203125 -13.46875 C 1.203125 -17.46875 2.460938 -20.851562 4.984375 -23.625 C 7.515625 -26.394531 10.726562 -27.78125 14.625 -27.78125 C 18.207031 -27.78125 21.15625 -26.660156 23.46875 -24.421875 L 23.46875 -45.25 L 32.78125 -45.25 L 32.78125 0 L 23.578125 0 L 23.578125 -3.046875 L 23.46875 -3.046875 C 21.15625 -0.484375 18.207031 0.796875 14.625 0.796875 C 10.726562 0.796875 7.515625 -0.578125 4.984375 -3.328125 Z M 12.921875 -18.046875 C 11.710938 -16.859375 11.109375 -15.332031 11.109375 -13.46875 C 11.109375 -11.613281 11.6875 -10.097656 12.84375 -8.921875 C 14 -7.742188 15.523438 -7.15625 17.421875 -7.15625 C 19.242188 -7.15625 20.742188 -7.75 21.921875 -8.9375 C 23.097656 -10.132812 23.6875 -11.644531 23.6875 -13.46875 C 23.6875 -15.332031 23.078125 -16.859375 21.859375 -18.046875 C 20.648438 -19.242188 19.171875 -19.84375 17.421875 -19.84375 C 15.628906 -19.84375 14.128906 -19.242188 12.921875 -18.046875 Z M 12.921875 -18.046875 "/></g></g></g><g clip-path="url(#dd5d8a388b)"><g transform="matrix(1, 0, 0, 1, 72, 173)"><g clip-path="url(#e4837ddc9a)"><path fill="#ffffff" d="M 7.300781 8.257812 C 0.429688 12.71875 -1.523438 21.90625 2.941406 28.777344 C 6.761719 34.664062 14.054688 36.9375 20.386719 34.664062 L 24.625 41.1875 L 27.992188 46.375 C 29.011719 47.945312 31.132812 48.394531 32.703125 47.375 C 34.277344 46.355469 34.726562 44.234375 33.707031 42.664062 L 30.339844 37.480469 L 26.101562 30.953125 C 30.757812 26.09375 31.644531 18.507812 27.820312 12.617188 C 23.359375 5.746094 14.171875 3.792969 7.300781 8.257812 Z M 32.703125 47.375 Z M 32.703125 47.375 " fill-opacity="1" fill-rule="evenodd"/><g clip-path="url(#8e80f35eb9)"><path fill="#000000" d="M 9.128906 5.3125 C 6.148438 7.246094 4.234375 10.210938 3.546875 13.433594 C 2.863281 16.652344 3.410156 20.136719 5.34375 23.121094 L 7.308594 21.84375 C 5.726562 19.40625 5.28125 16.554688 5.839844 13.917969 C 6.402344 11.28125 7.96875 8.859375 10.40625 7.277344 Z M 7.425781 2.683594 C 3.71875 5.09375 1.335938 8.773438 0.484375 12.78125 C -0.367188 16.789062 0.3125 21.117188 2.71875 24.824219 C 5.125 28.53125 8.808594 30.910156 12.8125 31.765625 C 15.378906 32.308594 18.074219 32.226562 20.65625 31.46875 L 24.28125 37.046875 L 24.972656 38.113281 L 28.339844 43.296875 C 29.027344 44.355469 30.082031 45.035156 31.226562 45.277344 C 32.375 45.523438 33.617188 45.332031 34.671875 44.644531 C 35.730469 43.957031 36.410156 42.902344 36.652344 41.757812 C 36.898438 40.609375 36.707031 39.367188 36.019531 38.3125 L 32.652344 33.128906 L 31.960938 32.0625 L 28.335938 26.480469 C 30.082031 24.433594 31.253906 22 31.796875 19.4375 C 32.648438 15.429688 31.972656 11.097656 29.566406 7.390625 C 27.15625 3.683594 23.476562 1.304688 19.46875 0.453125 C 15.464844 -0.398438 11.132812 0.277344 7.425781 2.683594 Z M 22.898438 30.621094 C 23.414062 30.378906 23.921875 30.109375 24.414062 29.808594 L 24.417969 29.808594 L 24.441406 29.792969 C 24.476562 29.773438 24.507812 29.753906 24.539062 29.734375 C 24.585938 29.707031 24.632812 29.675781 24.675781 29.648438 L 24.691406 29.640625 C 24.746094 29.601562 24.804688 29.566406 24.859375 29.53125 C 24.914062 29.496094 24.96875 29.460938 25.023438 29.421875 L 25.039062 29.414062 C 25.082031 29.382812 25.128906 29.351562 25.171875 29.324219 C 25.203125 29.300781 25.234375 29.28125 25.265625 29.257812 L 25.289062 29.242188 L 25.292969 29.242188 C 25.765625 28.910156 26.21875 28.558594 26.648438 28.183594 L 30.089844 33.488281 C 29.933594 33.605469 29.78125 33.714844 29.628906 33.824219 C 29.226562 34.105469 28.769531 34.417969 28.25 34.753906 C 27.730469 35.089844 27.257812 35.382812 26.839844 35.636719 C 26.679688 35.730469 26.515625 35.824219 26.34375 35.921875 Z M 2.777344 13.269531 C 3.503906 9.847656 5.535156 6.707031 8.699219 4.652344 C 11.863281 2.597656 15.5625 2.019531 18.980469 2.746094 C 22.402344 3.472656 25.542969 5.503906 27.597656 8.667969 C 29.652344 11.832031 30.230469 15.527344 29.503906 18.949219 C 28.777344 22.367188 26.746094 25.511719 23.582031 27.566406 C 20.417969 29.621094 16.71875 30.199219 13.300781 29.472656 C 9.882812 28.746094 6.738281 26.710938 4.683594 23.546875 C 2.628906 20.382812 2.050781 16.6875 2.777344 13.269531 Z M 30.304688 42.023438 L 27.617188 37.886719 C 27.753906 37.808594 27.890625 37.726562 28.03125 37.644531 C 28.582031 37.316406 29.082031 37.007812 29.527344 36.71875 C 29.96875 36.429688 30.453125 36.101562 30.976562 35.730469 C 31.109375 35.636719 31.238281 35.542969 31.367188 35.453125 L 34.050781 39.589844 C 34.386719 40.101562 34.480469 40.707031 34.359375 41.269531 C 34.242188 41.828125 33.910156 42.34375 33.394531 42.679688 C 32.882812 43.011719 32.277344 43.105469 31.714844 42.988281 C 31.15625 42.867188 30.640625 42.535156 30.304688 42.023438 Z M 30.304688 42.023438 " fill-opacity="1" fill-rule="nonzero"/></g></g></g></g><g transform="matrix(1, 0, 0, 1, 90, 220)"><g clip-path="url(#1de8963bdb)"><g fill="#c1ff72" fill-opacity="1"><g transform="translate(1.410303, 18.924705)"><g><path d="M 9.625 -7.28125 C 11.351562 -6.832031 12.21875 -5.75 12.21875 -4.03125 C 12.21875 -2.863281 11.859375 -1.945312 11.140625 -1.28125 C 10.421875 -0.625 9.550781 -0.222656 8.53125 -0.078125 C 8.070312 -0.0234375 7.445312 0 6.65625 0 L 1.734375 0 L 1.734375 -13.5 L 6.578125 -13.5 C 7.296875 -13.5 7.875 -13.472656 8.3125 -13.421875 C 9.394531 -13.285156 10.234375 -12.914062 10.828125 -12.3125 C 11.421875 -11.71875 11.71875 -10.96875 11.71875 -10.0625 C 11.71875 -8.6875 11.019531 -7.757812 9.625 -7.28125 Z M 4.4375 -11.390625 L 4.4375 -7.96875 L 6.46875 -7.96875 C 6.800781 -7.96875 7.125 -7.984375 7.4375 -8.015625 C 8.414062 -8.171875 8.90625 -8.734375 8.90625 -9.703125 C 8.90625 -10.648438 8.394531 -11.191406 7.375 -11.328125 C 7.0625 -11.367188 6.734375 -11.390625 6.390625 -11.390625 Z M 7.6875 -2.15625 C 8.1875 -2.1875 8.59375 -2.363281 8.90625 -2.6875 C 9.226562 -3.019531 9.390625 -3.460938 9.390625 -4.015625 C 9.390625 -5.148438 8.8125 -5.773438 7.65625 -5.890625 C 7.320312 -5.929688 7 -5.953125 6.6875 -5.953125 L 4.4375 -5.953125 L 4.4375 -2.125 L 6.78125 -2.125 C 7.21875 -2.125 7.519531 -2.132812 7.6875 -2.15625 Z M 7.6875 -2.15625 "/></g></g></g><g fill="#c1ff72" fill-opacity="1"><g transform="translate(29.911129, 18.924705)"><g><path d="M 9.0625 -4.0625 L 4.515625 -4.0625 L 3.171875 0 L 0.296875 0 L 5.171875 -13.5 L 8.546875 -13.5 L 13.328125 0 L 10.390625 0 Z M 6.8125 -11.1875 L 5.203125 -6.203125 L 8.375 -6.203125 Z M 6.8125 -11.1875 "/></g></g></g><g fill="#c1ff72" fill-opacity="1"><g transform="translate(58.783603, 18.924705)"><g><path d="M 13.59375 0 L 9.90625 0 L 4.34375 -10.25 C 4.40625 -9.019531 4.4375 -7.640625 4.4375 -6.109375 L 4.4375 0 L 1.734375 0 L 1.734375 -13.5 L 5.328125 -13.5 L 11 -3.046875 C 10.925781 -4.265625 10.890625 -5.679688 10.890625 -7.296875 L 10.890625 -13.5 L 13.578125 -13.5 Z M 13.59375 0 "/></g></g></g><g fill="#c1ff72" fill-opacity="1"><g transform="translate(89.299112, 18.924705)"><g><path d="M 8.125 -13.421875 C 9.789062 -13.222656 11.128906 -12.582031 12.140625 -11.5 C 13.160156 -10.414062 13.671875 -8.890625 13.671875 -6.921875 C 13.671875 -4.941406 13.148438 -3.351562 12.109375 -2.15625 C 11.066406 -0.96875 9.722656 -0.273438 8.078125 -0.078125 C 7.617188 -0.0234375 7.046875 0 6.359375 0 L 1.734375 0 L 1.734375 -13.5 L 6.390625 -13.5 C 7.085938 -13.5 7.664062 -13.472656 8.125 -13.421875 Z M 7.46875 -2.1875 C 8.5 -2.320312 9.3125 -2.796875 9.90625 -3.609375 C 10.507812 -4.429688 10.8125 -5.523438 10.8125 -6.890625 C 10.8125 -8.191406 10.519531 -9.21875 9.9375 -9.96875 C 9.351562 -10.726562 8.550781 -11.175781 7.53125 -11.3125 C 7.125 -11.363281 6.640625 -11.390625 6.078125 -11.390625 L 4.4375 -11.390625 L 4.4375 -2.125 L 6.046875 -2.125 C 6.710938 -2.125 7.1875 -2.144531 7.46875 -2.1875 Z M 7.46875 -2.1875 "/></g></g></g><g fill="#c1ff72" fill-opacity="1"><g transform="translate(119.247384, 18.924705)"><g><path d="M 12.703125 -13.5 L 12.703125 -5.5 C 12.703125 -4.851562 12.6875 -4.320312 12.65625 -3.90625 C 12.5625 -2.6875 12.0625 -1.679688 11.15625 -0.890625 C 10.25 -0.109375 8.910156 0.28125 7.140625 0.28125 C 5.347656 0.28125 4 -0.109375 3.09375 -0.890625 C 2.1875 -1.679688 1.691406 -2.6875 1.609375 -3.90625 C 1.578125 -4.320312 1.5625 -4.851562 1.5625 -5.5 L 1.5625 -13.5 L 4.25 -13.5 L 4.25 -5.21875 C 4.25 -4.757812 4.257812 -4.4375 4.28125 -4.25 C 4.34375 -3.445312 4.613281 -2.828125 5.09375 -2.390625 C 5.570312 -1.953125 6.253906 -1.734375 7.140625 -1.734375 C 8.015625 -1.734375 8.6875 -1.953125 9.15625 -2.390625 C 9.632812 -2.828125 9.910156 -3.445312 9.984375 -4.25 C 10.003906 -4.4375 10.015625 -4.757812 10.015625 -5.21875 L 10.015625 -13.5 Z M 12.703125 -13.5 "/></g></g></g><g fill="#c1ff72" fill-opacity="1"><g transform="translate(148.628404, 18.924705)"><g><path d="M 13.59375 0 L 9.90625 0 L 4.34375 -10.25 C 4.40625 -9.019531 4.4375 -7.640625 4.4375 -6.109375 L 4.4375 0 L 1.734375 0 L 1.734375 -13.5 L 5.328125 -13.5 L 11 -3.046875 C 10.925781 -4.265625 10.890625 -5.679688 10.890625 -7.296875 L 10.890625 -13.5 L 13.578125 -13.5 Z M 13.59375 0 "/></g></g></g><g fill="#c1ff72" fill-opacity="1"><g transform="translate(179.143913, 18.924705)"><g><path d="M 7.921875 -6.890625 L 13.359375 -6.890625 L 13.359375 0 L 11.1875 0 L 11.015625 -2.1875 L 10.40625 -0.828125 C 9.664062 -0.0859375 8.570312 0.28125 7.125 0.28125 C 5.238281 0.28125 3.742188 -0.34375 2.640625 -1.59375 C 1.546875 -2.84375 1 -4.535156 1 -6.671875 C 1 -8.835938 1.625 -10.5625 2.875 -11.84375 C 4.125 -13.125 5.71875 -13.765625 7.65625 -13.765625 C 9.414062 -13.765625 10.789062 -13.335938 11.78125 -12.484375 C 12.769531 -11.628906 13.335938 -10.503906 13.484375 -9.109375 L 13.5 -8.921875 L 10.796875 -8.921875 L 10.765625 -9.109375 C 10.410156 -10.867188 9.359375 -11.75 7.609375 -11.75 C 6.503906 -11.75 5.601562 -11.304688 4.90625 -10.421875 C 4.207031 -9.535156 3.859375 -8.335938 3.859375 -6.828125 C 3.859375 -5.191406 4.195312 -3.929688 4.875 -3.046875 C 5.550781 -2.171875 6.4375 -1.734375 7.53125 -1.734375 C 8.40625 -1.734375 9.128906 -2 9.703125 -2.53125 C 10.285156 -3.070312 10.644531 -3.816406 10.78125 -4.765625 L 7.921875 -4.765625 Z M 7.921875 -6.890625 "/></g></g></g></g></g></svg>